<?xml version="1.0" encoding="UTF-8"?>
<svg xmlns="http://www.w3.org/2000/svg" width="180.24" height="111.37" xmlns:xlink="http://www.w3.org/1999/xlink" viewBox="0 0 180.24 111.37">
  <defs>
    <style>
      .cls-1 {
        filter: url(#drop-shadow-3);
      }

      .cls-1, .cls-2, .cls-3, .cls-4, .cls-5, .cls-6, .cls-7, .cls-8 {
        stroke: #fff;
      }

      .cls-1, .cls-2, .cls-4, .cls-5, .cls-7 {
        fill: none;
      }

      .cls-1, .cls-3, .cls-4, .cls-5, .cls-7, .cls-8 {
        stroke-miterlimit: 10;
      }

      .cls-2 {
        font-size: 4.96px;
      }

      .cls-2, .cls-6 {
        font-family: ChakraPetch-BoldItalic, 'Chakra Petch';
        font-style: italic;
        font-weight: 700;
      }

      .cls-3, .cls-5, .cls-8 {
        stroke-width: .5px;
      }

      .cls-3, .cls-6 {
        fill: #fff;
      }

      .cls-6 {
        filter: url(#drop-shadow-1);
        font-size: 11.12px;
        stroke-width: .25px;
      }

      .cls-9 {
        letter-spacing: -.02em;
      }

      .cls-10 {
        letter-spacing: -.01em;
      }

      .cls-11 {
        letter-spacing: -.08em;
      }

      .cls-7 {
        filter: url(#drop-shadow-2);
      }

      .cls-12 {
        letter-spacing: -.01em;
      }

      .cls-13 {
        letter-spacing: -.02em;
      }
    </style>
    <filter id="drop-shadow-1" filterUnits="userSpaceOnUse">
      <feOffset dx="2" dy="2"/>
      <feGaussianBlur result="blur" stdDeviation="5"/>
      <feFlood flood-color="#000" flood-opacity=".7"/>
      <feComposite in2="blur" operator="in"/>
      <feComposite in="SourceGraphic"/>
    </filter>
    <filter id="drop-shadow-2" x="76.32" y="20.41" width="103.92" height="72" filterUnits="userSpaceOnUse">
      <feOffset dx="4" dy="4"/>
      <feGaussianBlur result="blur-2" stdDeviation="5"/>
      <feFlood flood-color="#000" flood-opacity=".5"/>
      <feComposite in2="blur-2" operator="in"/>
      <feComposite in="SourceGraphic"/>
    </filter>
    <filter id="drop-shadow-3" x="0" y="21.37" width="104.16" height="72.48" filterUnits="userSpaceOnUse">
      <feOffset dx="4" dy="4"/>
      <feGaussianBlur result="blur-3" stdDeviation="5"/>
      <feFlood flood-color="#000" flood-opacity=".5"/>
      <feComposite in2="blur-3" operator="in"/>
      <feComposite in="SourceGraphic"/>
    </filter>
  </defs>
  <g id="Vrstva_2" data-name="Vrstva 2">
    <line class="cls-5" x1="15.74" y1=".26" x2="158.65" y2=".26"/>
    <rect class="cls-3" x="85.44" y="-67" width="2.97" height="137.46" transform="translate(85.19 88.66) rotate(-90)"/>
  </g>
  <g id="Vrstva_1" data-name="Vrstva 1">
    <line class="cls-8" x1="126.73" y1="102.7" x2="161.69" y2="64.38"/>
    <line class="cls-8" x1="45.22" y1="102.41" x2="10.95" y2="64.84"/>
    <line class="cls-5" x1="15.74" y1="41.55" x2="15.74" y2=".26"/>
    <line class="cls-5" x1="158.65" y1="45.65" x2="158.65" y2=".26"/>
    <rect class="cls-5" x="15.74" y=".26" width="142.45" height="7.99"/>
    <rect class="cls-5" x="15.74" y=".26" width="142.45" height="7.99"/>
    <rect class="cls-5" x="15.74" y="8.25" width="142.45" height="7.99"/>
    <rect class="cls-5" x="15.74" y="8.25" width="142.45" height="7.99"/>
    <rect class="cls-5" x="15.97" y="16.37" width="142.45" height="7.99"/>
    <rect class="cls-5" x="15.97" y="16.37" width="142.45" height="7.99"/>
    <path class="cls-3" d="M158.57,44.32l-1.55-1.97c-.46-14.03-.92-28.06-1.37-42.09h3.21c-.1,14.69-.19,29.37-.29,44.06Z"/>
    <rect class="cls-5" x="16.1" y="24.42" width="142.45" height="7.99"/>
    <path class="cls-3" d="M17.86,37.76c-.61.92-1.23,1.85-1.84,2.77-.02-13.37-.04-26.74-.06-40.12h3.21c-.43,12.45-.87,24.9-1.3,37.35Z"/>
    <text class="cls-6" transform="translate(47.15 87.93) scale(.94 1)"><tspan x="0" y="0">SUV </tspan><tspan class="cls-11" x="25.13" y="0">V</tspan><tspan class="cls-10" x="31.41" y="0">A</tspan><tspan x="38.43" y="0">G SE</tspan><tspan class="cls-13" x="62.8" y="0">R</tspan><tspan x="70.14" y="0">VIS</tspan></text>
    <g>
      <path class="cls-7" d="M150.8,61.3l-11.11,2.84c-.47,2.86-1.14,7.73-4.57,8.49-1.04.23-3.32.13-4.44.04-2.96-.24-4.14-2.57-4.71-5.18-1.17-.22-2.89.23-3.96-.24-.44-.19-.67-.67-1.22-.74-1.43-.17-3.21-.04-4.67-.09-2.23-.07-4.48-.21-6.71-.29-1.99-.07-3.97-.12-5.96-.18-.87,2.01-2.37,3.84-4.7,4.1-3.79.42-7.03-.44-8.21-4.38-.1-.33-.16-1.11-.28-1.3-.1-.15-.63-.31-.84-.47-2.03-1.55-1.65-7.75-1.14-10,.27-1.17.83-1.94,1.29-3,.4-.91.77-2.35,1.38-3.09.51-.62,2.67-1.64,3.48-2.02,3.1-1.46,6.39-2.51,9.78-3.11.25-1.16.76-1.94,2.01-2.09.36-.04.84.07,1.15-.06.52-.21,2.59-2.23,3.23-2.75,1.53-1.24,3.14-2.52,4.91-3.4,2.47-1.23,4.19-2.07,7.03-2.21,3.81-.19,7.86-.05,11.67,0,1.9.03,4.35.26,6.17.09.48-.04.97-.25,1.49-.29,2.38-.18,6.17.56,8.36,1.55.82.37,2.04,1.38,2.76,2,2.05,1.77,2.95,4.38,4.43,6.58.51.76,1.22,1.46,1.66,2.25,1.57,2.77,1.7,9.77,1.06,12.87-.41,1.96-.28,3.85-.69,5.84-.24,1.14-.92,3.5-2.1,3.97-.61.24-2.88.15-3.57-.02-2.44-.58-2.86-3.64-2.98-5.74ZM159.76,52.26c-.07-1.83-.2-3.79-.62-5.58-.47-1.96-1.3-2.4-2.31-3.94-1.44-2.2-2.29-4.89-4.31-6.71-2.42-2.17-8.11-3.68-11.25-2.94-.2.05-.33.23-.61.24-.62.03-1.73-.24-2.43-.29-3.92-.24-7.84-.21-11.76-.09-2.57.08-5.21-.03-7.66.83l-1.16.47,5.18-.38c5.37.04,11.01-.33,16.34.28.39.04,1.06.27.94.75-.9,2.11-1.53,4.34-2.41,6.46-.42,1-.56,1.84-1.8,1.94-1.63.13-3.33-.07-4.95-.1-6.63-.11-13.26-.11-19.89,0-1.61.03-3.36-.11-4.95,0-1.77.12-4.21.75-5.93,1.26-2.62.78-5.29,1.91-7.65,3.26.65.4,1.5.92,2.28.98,2.6.22,5.42-.01,8.03.09,1.42-.67,2.63-.65,4.01.09,5.69.16,11.15-.04,16.8-.67,1.51-.17,3.3-.57,4.77-.64,1.88-.08,1.73,1.23,1.18,2.58-1.03,2.53-2.21,2.47-4.65,2.82s-5.41.76-7.83.85c-.84.03-1.05-.21-1.68-.28-2.73-.33-6.02.32-8.79-.08-1.44,1.27-3.2,1.43-4.66.09-2.46-.09-4.91-.33-7.37-.38-.18,0-.36-.11-.56-.1-.34.01-.52.3-.92.28-.68-.04-3.05-1.26-3.27-1.2-1.3,1.97-1.26,4.6-1.27,6.89l.4-2.26c.04-.14.16-.63.25-.68.33-.22,1.89.39,2.34.47-.37.4-1.67-.11-1.92.14-.26.26-.17,1.75-.37,2.24-.17.42-.55.41-.59.48-.27.42.43,3.72,1.34,3.89.5-.54.74-1.21,1.59-1.21,1.88,0,3.82.29,5.7.38,6.34.32,12.69.51,19.05.65,1.53.48,2.74,1.7,4.32,2.12,2.01-.17,4.36.33,6.32.11,1.85-.21,2.07-2.02,2.36-3.52.59-3.01.82-5.91,2.19-8.73,1.21-2.48,3.85-5.32,6.33-2.34,1.94,2.33,2.07,6.89,1.97,9.8l-.19,2.56,12.58-3.34c.72-.3.91-.79,1.1-1.51.32-1.19.39-2.59.65-3.83.31-1.48,1.35-5.71,3.18-5.88,1.71-.15,1.99,2.12,2.38,3.31.04.12,0,.29.19.32ZM106.73,42.46c2.69-.07,5.38-.07,8.08-.09,5.93-.03,11.89.2,17.82.28.66,0,2.78.12,3.25-.02.37-.11.79-1.03.95-1.38.87-1.96,1.49-4.18,2.28-6.19-.05-.16-1.01-.22-1.26-.24-4.6-.44-9.66-.34-14.28-.18-2.25.07-6.4-.06-8.29.95-.87.47-1.87,1.21-2.67,1.81-2.08,1.56-3.92,3.39-5.89,5.07ZM93.57,52.63v-3.31c-.29-.28-1.79-1.17-2.08-.99-.46.3-.92,2.39-1.16,2.95.04.39,3.06,1.53,3.24,1.35ZM117.68,49.77c-.24.42-.55.81-.76,1.24-.12.24-.73,1.62-.74,1.78-.03.29.5.22.69.21,2.08-.09,4.53-.41,6.63-.65,1-.11,3-.24,3.86-.53.66-.22,1.94-2.43,1.88-3.06-.01-.13-.08-.22-.19-.28l-11.36,1.29ZM105.95,53.16c2.5-2.46-.6-5.74-2.95-3.55s.57,5.89,2.95,3.55ZM102.06,49.83l-7.75-.28v.65s7.24.19,7.24.19c.36.01.4-.29.51-.56ZM116.54,49.92c-2.59-.07-5.21.09-7.8,0-.37-.01-.71-.16-1.12-.1-.29.04-.11.52.02.66l8.39.09c.38.02.37-.4.51-.66ZM139.22,57.48c0-2.46-1.49-9.17-5.18-6.34-1.69,1.3-2.37,3.72-2.85,5.69l1.2-2.49c.46-.78,1.35-2,2.16-2.41,2.28-1.16,3.6,1.32,4.16,3.13l.51,2.43ZM156.84,50.78c-.33.05-.76.57-.93.85-1.6,2.53-2.08,11.84-.11,14.15.62.73,1.45.59,2-.13,1.53-2.02,1.53-8.14,1.2-10.62-.11-.87-.91-4.44-2.16-4.24ZM101.5,51.32c-.79-.02-1.59.03-2.39,0-1.35-.04-3.29-.35-4.58-.19-.25.03-.33.05-.33.33,0,.08,0,.17.05.24l7.29.27-.05-.65ZM107.39,52.16h8.17l.23-.65-8.25-.1-.15.75ZM134.44,54.05c-2.26.38-3.61,5.66-3.89,7.59-.41,2.81-.33,11.5,4.56,10.06,3.97-1.17,4.15-9.82,3.34-13.03-.43-1.71-1.81-5-4.01-4.62Z"/>
      <path class="cls-4" d="M117.19,58.04c-.25-.21.63-.35.71-.36,1.18-.14,2.53-.22,3.72-.29,1.08-.07,2.5-.22,3.55-.19.91.02,1.44.41,1.44,1.36,0,.54-.16,2.07-.3,2.59-.4,1.44-2.46,1.19-3.66,1.28-1.02.08-2.96.42-3.85.02-.98-.44-.85-.77-2.22-.86-1.77-.11-3.64-.05-5.42-.09-6.28-.15-13.23-.03-19.42-.84-.31-.04-.56-.29-.89-.13-.09.04-.93,1.02-.89.37.03-.59,1.65-2.88,2.15-3.31.63-.54.87-.49,1.69-.47,3.78.11,7.6.46,11.38.57,1.49.04,3,.06,4.48.09,1.71.04,3.76-.35,5.21.57,1.56.99,2.93,2.61,4.52,3.6,1.05.08,2.11-.08,3.16-.17.8-.06,2.49.14,2.88-.66.19-.39.51-2.43.39-2.79-.03-.11-.11-.2-.2-.26h-8.44Z"/>
      <path class="cls-4" d="M143.59,34.18c2.12-.29,6.82.76,8.6,1.99,1.35.93,2.71,3.19,3.06,4.78.16.71.04,1.25-.58,1.7s-2.98.7-3.84.83c-3.69.55-7.42.83-11.11,1.31-1.16-.02-.89-.96-.73-1.77.34-1.8,1.7-7.07,3.03-8.16.38-.31,1.07-.61,1.57-.67ZM145.46,35.02c-.85-.08-1.91-.09-2.64.45-1,.74-1.72,3.1-2.05,4.29-.31,1.09-.66,2.21-.61,3.36.26.05.15-.06.21-.2.45-1.13.77-2.37,2.26-2.5,1.75-.16,4.72.29,4.07,2.71l1.12-.09c-.54-2.73-1.39-5.4-2.36-8ZM152.39,42.37c-.58-2.18-1.51-4.25-2.42-6.3-1.04-.57-2.31-.71-3.46-.98l2.19,7.65,3.69-.38ZM153.15,42.08c1.87.07,1.48-.66.99-1.97-.55-1.49-1.64-3.18-3.15-3.8l2.16,5.77ZM145.93,43.1c.37-1.87-1.75-2.1-3.12-1.95-1.03.12-1.74,1.36-1.73,2.33.56.04,4.7-.17,4.84-.39Z"/>
      <path class="cls-4" d="M153.23,55.43c.05.38-.06.62-.44.72-3.83.81-7.77,2.26-11.6,2.97-.17.03-.87.23-.94,0-.07-.27.29-.46.48-.54,2.14-.86,5.55-1.53,7.88-2.11,1.52-.38,3.06-.82,4.61-1.03Z"/>
      <path class="cls-4" d="M134.93,44.51l-12.98,2.98,2.97-.91c3.3-.84,6.62-1.65,10.01-2.08Z"/>
      <path class="cls-4" d="M149.03,46.38c-.47.48-1.41.46-2.05.46.46-.47,1.42-.39,2.05-.46Z"/>
      <path class="cls-4" d="M155.65,45.73c-.37.5-1.13.36-1.68.46-.04-.21.02-.18.18-.23.44-.13,1.03-.15,1.5-.23Z"/>
      <path class="cls-4" d="M134.72,57.03c2.11-.34,3.1,3.61,3.2,5.15.13,1.99-.56,7.6-3.32,7.61-2.47,0-3.02-4.51-2.95-6.31s.97-6.12,3.06-6.46ZM134.78,58.65c-.62.03-1.12.67-1.4,1.16-1.1,1.94-1.38,6.45.23,8.17,1.06,1.13,2.1.16,2.65-.9.91-1.75,1-4.19.5-6.07-.23-.86-.93-2.41-1.98-2.36Z"/>
      <path class="cls-4" d="M156.93,53.21c.79-.18,1.2.94,1.4,1.55.77,2.28.69,6.08-.21,8.32-.96,2.39-2.11,1.38-2.61-.56-.54-2.11-.47-4.99.09-7.09.16-.61.65-2.07,1.33-2.22ZM156.84,54.79c-.39.11-.7,1.53-.78,1.93-.33,1.64-.42,4.46.3,5.98.66,1.39,1.25-.12,1.46-.87.39-1.46.47-3.16.24-4.65-.08-.49-.48-2.25-.97-2.39-.08-.03-.16-.03-.24,0Z"/>
      <path class="cls-4" d="M105.76,49.84c.32-.1.57.47.49.77-.03.11-1.32,1.74-1.43,1.75-.22-.17-.17-.52-.1-.75.04-.13.94-1.73,1.04-1.76Z"/>
      <path class="cls-4" d="M103.65,52.16c-.1-.47-1.18-2.14-.23-2.24.38-.06.67,1.19.69,1.46s-.11.78-.46.78Z"/>
      <path class="cls-4" d="M104.23,49.39c.24-.17.91-.22.99.14.01.2-.5,1.22-.6,1.24-.28.07-.6-1.14-.4-1.38Z"/>
      <path class="cls-4" d="M106.45,51.42c.08.36-.92,1.73-1.17,1.68-.33-.07.09-.58.16-.68.11-.17.78-1.21,1.01-1Z"/>
      <path class="cls-4" d="M103.18,52.91c-.6.03-.85-1.96-.51-1.96.22.27.68,1.76.51,1.96Z"/>
      <path class="cls-4" d="M104.16,52.47c.38-.03.5,1.01.27,1.08-.91.28-.97-.7-.27-1.08Z"/>
      <text class="cls-2" transform="translate(142.51 56.1) rotate(-10.69)"><tspan class="cls-9" x="0" y="0">S</tspan><tspan class="cls-12" x="3.06" y="0">V</tspan><tspan x="6.22" y="0">S</tspan></text>
    </g>
    <g>
      <g>
        <path class="cls-1" d="M67.58,43.49c3.28.71,6.58,1.56,9.66,2.9,2.37,1.03,4.05,1.91,5.15,4.38.23.51.34,1.12.55,1.58.18.39.5.71.7,1.18.46,1.12.73,3.1.79,4.32.08,1.55-.06,3.15-.08,4.69s-1.05,2.39-2.31,2.91c-.55,3.02-2.47,5.49-5.54,6.19-3.95.9-6.81-.89-8.39-4.46l-18.97.77c-.81.45-1.59.63-2.51.64-.74,2.81-2.15,5.13-5.24,5.57-.79.11-2.09.21-2.88.18-3.51-.15-5-3.4-5.72-6.37-.13-.51-.22-1.72-.38-2.09-.04-.09-.09-.13-.19-.15l-10.06-2.7c-.12.01-.42,1.74-.51,2.03-.75,2.62-2.43,3.76-5.19,3.49-2.9-.28-3.31-3.96-3.62-6.26-.06-.48,0-1.11-.11-1.6-.12-.57-.6-1.21-.77-1.87-.7-2.67-.4-9.48.39-12.17.54-1.85,1.62-2.79,2.68-4.3,1.67-2.38,2.8-5.01,5.22-6.79,2.03-1.5,4.94-2.37,7.44-2.6,1.45-.13,2.82.1,4.25.08,5.73-.07,11.47-.3,17.2.17,5.22.44,8.4,2.39,12.34,5.62.71.58,2.26,2.21,2.91,2.54.33.17,1.18.16,1.65.31.98.3,1.3.85,1.55,1.81ZM54.53,35.42c-3.15-1.41-6.78-1.34-10.18-1.44-4.23-.13-8.45-.12-12.68.08-.88.04-1.27.02-2.13,0-3.62-.11-7.59.76-10.14,3.49-1.4,1.51-2.31,3.45-3.46,5.14-1.05,1.53-2.19,2.42-2.7,4.28-.63,2.3-.7,4.81-.69,7.19l.29-1.88c.38-1.33.92-3.59,2.77-3.11,1.58.41,2.45,4.24,2.7,5.65.18,1,.21,2.04.38,3.03.04.23.05.6.19.74l13.33,3.91c-.29-2.97-.52-6.03.53-8.87.94-2.53,2.86-4.61,5.68-2.91,3.24,1.95,4.27,7.59,4.6,11.06.09.95,0,1.92.21,2.85.1.16,1.59.39,1.88.42,2.89.32,6.46.34,9.36.17,1.72-.1,2.12-.43,3.65-.78,1.79-.41,3.88-.25,5.72-.33,2.83-.12,5.67-.21,8.51-.34,1.62-.07,3.33-.31,4.93-.35s2.48,1.07,3.99.93c1.33-.12,2.19-.54,2.1-2.03-1.16.17-2.43.57-3.62.43-.6-.07-.79-.48-.68-1.03.09-.48.75-2.36,1.02-2.72.61-.82,2.43-1.06,3.37-1.36-.04-.69-.41-4.23-1.08-4.42-.13-.04-2.47.64-2.54.75,0,1.5-.31,3.06-.66,4.53-.19.81-.44,1.74-.7,2.54-.32.99-.6,2.04-1.8,2.2-.83.12-1.72.04-2.55.09-3.24.18-6.46.28-9.71.34-1.36.02-3.77.37-4.98-.21-.52-.25-.72-.68-.94-1.19-.61-1.48-.97-3.2-1.57-4.73-.25-.64-1.27-3.02-1.83-3.28l-7.45-.64c-2.5-.21-4.24.21-5.13-2.71-.65-2.13.56-2.26,2.36-2.15.14-.11-1.96-.94-2.11-1-2.19-.82-4.48-1.3-6.75-1.85l-.05-.56c.18-.25,1.6.07,1.92.13,2.96.56,6.04,1.55,8.58,3.17,3.66.16,7.31.77,10.96.96,5.82.29,11.98-.16,17.87-.08,1.61.02,3-.21,4.56-.6.18-.18-2.46-1.46-2.67-1.55-4.3-1.91-8.84-3.02-13.55-3.14-8.56-.21-17.1.21-25.63.35-1.1.02-2.6.26-3.11-.98-.75-2.4-2.08-4.89-2.76-7.28-.13-.44-.22-.75.21-1.06,3.52-.32,7.07-.26,10.6-.3,3.75.15,7.5.15,11.24.5.1,0,.31.08.29-.07ZM65.01,43.42c-2.46-2.09-4.97-4.79-7.81-6.37-1.24-.69-2.9-.68-4.33-.78-5.89-.4-12.6-.48-18.47-.09-.24.02-1.19-.08-1.23.13.45,1.18.85,2.37,1.3,3.55.38.98.82,2.31,1.3,3.21.15.28.26.54.62.58,9.03-.19,18.09-.54,27.13-.23.5.02,1-.02,1.49,0ZM56.58,50.49l-12.05-.94-1.24.23c.03.8.51,1.93,1.16,2.42.76.57,2.23.43,3.15.51,2.47.21,4.96.46,7.44.5l1.55-2.71ZM77.61,50.32l2.02,2.54c.27.09,2.37-.45,2.41-.63-.19-.47-.89-2.36-1.34-2.49l-3.09.58ZM66.95,50.51c-2.65.03-5.86-.12-8.44.16-1.22.13-1.8,1.18-2.31,2.2s-.14.82.32,1.65c.65,1.17,1.14,2.5,1.6,3.76.33.91.97,3.48,1.45,4.09.62.79,2.9.57,3.88.56,3.08-.04,6.2-.22,9.27-.35,1.13-.05,2.46.08,3.57-.09.35-.05.73-.31.94-.6.75-1.05,1.78-5.91,1.83-7.27.07-1.59-1.95-3.95-3.54-4.12-2.51-.27-5.96-.01-8.56.01ZM16.31,52.11c.09-.09-.73-1.23-1.28-1.07s-1.1,1.63-1.1,2.18c.66-.8,1.2-1.69,2.38-1.11ZM40.66,55.43c-.61-2.06-2.88-5.17-5.34-3.76-1.67.96-2.26,3.86-2.41,5.63l.84-2.53c1.32-2.81,3.87-3.26,5.92-.87l.99,1.52ZM17.16,56.11c-.01-.72-.67-2.41-1.49-2.47-.93-.06-1.58,1.59-1.74,2.34l.59-.77c.6-.6,1.32-.67,1.97-.08l.68.98ZM41.51,60.36c-.3-1.59-1.18-4.31-2.79-5-3.52-1.51-5.23,4.95-5.38,7.34-.19,2.86.39,8.34,3.12,9.99,2.89,1.73,4.85-1.63,5.22-4.07-.24-.04-.14.06-.19.19-.73,1.78-1.96,3.73-4.24,3.09-3.25-.9-3.9-6.51-3.57-9.28.46-3.89,3.87-8.54,7.1-3.7l.73,1.44ZM17.16,58.66c-.2-1.17-1.19-4.18-2.59-2.21-1.25,1.76-1.1,6.38-.06,8.22,1.11,1.97,2.28.44,2.55-1.06.1-.55-.06-.35-.22-.58-.32-.47-.78-1.06-.52-1.65l.25.04.68.98c.16-1.07.12-2.24,0-3.32-.15.04-.08.32-.15.49-.05.11-.44.78-.49.79-.84-.44,0-1.35.34-1.87l.21.16ZM37.83,57.92c-2.7.1-3.49,4.85-3.39,6.92s1.26,7.05,4.24,6.02c2.73-.94,2.86-6.31,2.45-8.62-.27-1.55-1.38-4.39-3.3-4.32ZM83.57,58.58c-.18-.02-.52.03-.58.23.1.72-.17,1.61-.1,2.29,0,.1,0,.25.13.27l.39-.12c.14-.88.2-1.77.17-2.67ZM81.95,59c-1.59.17-1.52,1.73-2.04,2.89.56,0,1.46.11,1.79-.46.16-.28.36-2.31.25-2.43ZM32.32,64.79c-.05-.36.03-1.21-.28-1.38l-13-3.81c.22.65.36,1.59,1.06,1.87l12.22,3.32ZM43.3,65.64c.04,1,1.39,1.06,2.17,1.11,2.22.13,4.52-.04,6.73-.09,6.99-.16,13.96-.52,20.95-.93,1.69-.1,4.47.03,6-.47.11-.04.38-.08.34-.26-.69-.51-1.52-.57-2.34-.56-3.01.06-6.16.38-9.19.52-2.86.13-5.85.06-8.69.25-1.37.09-2.46.84-3.65.94-2.21.19-5-.02-7.24-.09-1.7-.05-3.41.04-5.07-.42ZM14.69,66.24c.17.6.85,1.04,1.47.92.67-.14,1.09-1.15,1.17-1.77l-.85.98c-.55.51-1.26.3-1.79-.13Z"/>
        <path class="cls-4" d="M26.94,34.76c3.71-.3,4.23.96,5.36,4.12.51,1.42,1.47,4.18,1.63,5.61.22,2-.81.78-1.69,1.27-.36.2-.34.55-.98.46-.4-.06-.69-.54-.94-.59-1.51-.28-3.39.22-4.7-.66-2.57-.39-5.23-.49-7.79-.98-2.16-.41-1.17-1.66-.42-3.01,2.29-4.13,4.69-5.83,9.53-6.22ZM33,44.61c-.49-2.1-1.08-4.32-1.89-6.32-.46-1.14-1.09-2.5-2.49-2.62-.25-.02-.73-.03-.93.1-.27.17-.98,2.41-1.13,2.87-.57,1.74-1.04,3.52-1.47,5.3l.35.05c.46-1.2.99-1.88,2.29-2.14,1.74-.34,3.09.09,3.91,1.72.4.8.12,1.21,1.37,1.05ZM26.53,35.85c-.16-.14-3.32.66-3.62.94-.22.22-.79,1.47-.97,1.84-.6,1.25-1.3,2.85-1.72,4.16-.04.12-.21.45-.09.52l4,.46,2.39-7.91ZM19.11,43.07l2.4-5.6c-1.33.82-2.29,2.21-3.05,3.55-.15.26-.98,1.73-.87,1.89l1.52.16ZM30.87,44.44c-.33-.9-.7-1.59-1.75-1.7s-2.19.1-2.6,1.24l.14.2,4.2.27Z"/>
        <path class="cls-4" d="M46.13,59.37c-.38.33-.5,2.46-.3,2.93.31.73,1.9.83,2.57.79l-.68-.13c-.46-.19-.75-1.52-.83-1.98-.04-.24-.21-1.13-.03-1.26.78-.05,1.57-.06,2.35-.04.2,0,.39.09.59.09,1.16.03,2.99-.08,4.07.18.13.03.42.23.53.32.25.23,1.62,1.84,1.73,2.1.4.92-.35,1.55-1.22,1.65-1.65.18-4.58.09-6.3,0-.7-.03-1.8-.13-2.45-.36-1.35-.49-1.41-1.44-1.34-2.75.06-1.11.24-2.45,1.57-2.6,2.95.25,6.38.11,9.27.61.41.07.81.18.96.63-.08.23-.26.48-.52.47-2.19-.38-4.42-.45-6.64-.6-.42-.03-.94-.15-1.36-.17s-1.72-.11-1.98.11Z"/>
        <path class="cls-4" d="M19.69,56.12c.24-.07,2.32.59,2.75.71,2.83.83,5.64,1.74,8.45,2.62.65.23.71,1.11-.13.98-.96-.14-2.86-.96-3.91-1.28-2.15-.65-5.09-1.27-7.07-2.12-.52-.22-.5-.78-.09-.91Z"/>
        <path class="cls-4" d="M25.65,48.42c-.23.22-1.83-.11-2.13-.25-.47-.22-.33-.9.15-.92.23-.01,1.82.31,1.96.43.23.19.23.55.02.75Z"/>
        <path class="cls-4" d="M17.39,46.42c.23-.07,1.38.11,1.62.22.5.23.41.84-.19.88-.22.01-1.29-.16-1.47-.24-.38-.18-.31-.75.04-.86Z"/>
        <path class="cls-4" d="M37.42,65.14c.08.36.36.43.21.84-.1.28-1.12,1.71-1.36,1.96-.61.64-.77.3-.85-.42.54-.57.91-1.43,1.41-2,.1-.12.42-.5.59-.38Z"/>
        <path class="cls-4" d="M37.86,58.93c.94-.17.66,1.29.67,1.91,0,.2.09.37.08.58,0,.13-.08.71-.12.83-.1.3-.47.36-.65.13-.25-.31-.24-3.28.02-3.44Z"/>
        <path class="cls-4" d="M39.19,65.49l1.28,2.68c.11.38-.38.76-.67.49-.2-.18-1.12-2.2-1.17-2.49-.06-.34.09-.58.37-.76l.19.08Z"/>
        <path class="cls-4" d="M38.25,69.96c-.4.2-.7,0-.75-.45-.06-.53.04-2.38.21-2.86s.57-.32.64.05c.09.46.05,2.27,0,2.81-.01.16-.01.31-.11.44Z"/>
        <path class="cls-4" d="M37.67,63.17l-.65-.02c-.18-.53-1.44-1.76-1.44-2.22,0-.14.07-.39.2-.48.16-.11.28-.04.42.08.16.14,1.3,1.65,1.39,1.84.13.26.12.51.09.79Z"/>
        <path class="cls-4" d="M38.76,65.11c-.76.7-1.72-.61-1-1.46.81-.96,1.76.75,1,1.46Z"/>
        <path class="cls-4" d="M40.2,60.96c.21-.05.45.62.4.82-.09.37-1.4,2.3-1.71,1.42-.18-.51.97-1.81,1.31-2.24Z"/>
        <path class="cls-4" d="M36.98,64.69c-.1.15-1.58.02-1.8-.09-.34-.17-.29-.58-.09-.84.83-.11,2.34-.4,1.89.93Z"/>
        <path class="cls-4" d="M40.91,65.55c-.53.05-1.85-.44-1.36-1.15.11-.15,1.23.12,1.37.26.18.18.07.67-.01.89Z"/>
        <path class="cls-4" d="M64.39,51.02c3.52.17,7.39-.3,10.88-.03,1.57.12,3.05,1.95,3.19,3.45.12,1.24-.75,4.54-1.17,5.82s-.83,1.62-2.19,1.73c-2.76.21-5.81.11-8.61.16-1.67.03-3.43.21-5.1.13-.89-.04-1.3-.32-1.64-1.12-.89-2.09-1.44-4.51-2.3-6.64-.02-1.09.54-2.57,1.54-3.1,1.25-.67,3.97.11,5.4-.38ZM72.38,52.14c-.39-.42-1.01-.55-1.55-.38-.21.07-.49.32-.61.33-.17.02-.55-.58-1.37-.36-.21.06-.43.27-.57.28-.24.02-.66-.33-1.02-.35-.48-.03-.88.35-1.1.34-.13,0-.44-.27-.7-.32-.72-.13-1.27.06-1.66.69-.79,1.29-.05,3.24,1.57,3.02.28-.04.7-.29.87-.28.32.01.64.27,1.19.22.31-.03.57-.24.77-.25.24-.02.46.22.76.26.66.08,1.03-.26,1.37-.25.18,0,.58.23.86.24,1.64.08,2.14-2.18,1.19-3.2ZM58.54,53.13h3.96l.21-.51c-.51-.18-1.09,0-1.57,0-.86,0-2.09-.33-2.6.51ZM76.29,52.53c-.82-.14-1.99.1-2.85,0l.08.47c1.12.23,2.28.07,3.41.12.13-.24-.45-.56-.64-.6ZM77.61,54.49h-4.13l-.3.6c1.46.05,2.91-.15,4.37-.08.16-.04.1-.4.06-.51ZM62.67,54.57h-4.21l.09.51h4.6c-.12-.15-.29-.48-.47-.51ZM77.35,56.19c-2.6,0-5.19.05-7.79.08-3.14.04-6.81-.14-9.88.09-.15.01-.66.03-.64.21.02.21.15.41.38.39,3.04.06,6.09-.05,9.11-.09,2.65-.04,5.65.12,8.27-.08.15-.01.31-.02.45-.11l.1-.49ZM76.83,58.16l-17.19.29.22.47,12.59-.09,4.24-.17.14-.5ZM60.41,60.36c-.08.07.22.55.38.51,4.52,0,9.03-.06,13.53-.26.74-.03,1.79.27,2.17-.46l-16.09.21Z"/>
        <path class="cls-4" d="M15.63,65.05c-.01-.19-.2-.31-.24-.49-.07-.31.04-1.99.15-2.28.23-.56.54.19.59.52s.06,1.72-.07,1.95c-.04.07-.34.36-.43.29Z"/>
        <path class="cls-4" d="M15.87,59.5c-.26.08-.37-.15-.41-.38-.07-.46-.05-1.64,0-2.12.06-.63.6-.48.68,0,.06.38.06,2.32-.26,2.49Z"/>
        <path class="cls-4" d="M15.03,61.13c.49.73-.07,1.64-.64,2.13-.5-.51.11-1.53.45-2.02.05-.07-.01-.16.19-.11Z"/>
        <path class="cls-4" d="M14.87,60.27c-.43-.72-.91-1.1-.69-2.03.14-.17.94,1.03,1,1.17.1.27.12.59-.05.83l-.25.03Z"/>
        <path class="cls-4" d="M15.56,61.45c-.77-1.64,1.15-1.77.41-.02l-.41.02Z"/>
        <path class="cls-4" d="M65.86,52.7c-.53.04-.47,1.57-.09,1.75-.46.61-1.27.49-1.61-.18-.6-1.17.54-2.81,1.69-1.69v.12Z"/>
        <path class="cls-4" d="M70.72,54.57c.27-.68.16-1.35-.06-2.04.68-.69,1.51-.08,1.65.75.16.96-.68,1.97-1.59,1.29Z"/>
        <path class="cls-4" d="M67.79,52.47l.07.18c-.2.35-.27.8-.22,1.2.03.24.26.56.24.67-.07.39-1.1.44-1.25,0,.08-.69.19-1.42-.1-2.07.51-.22.76-.37,1.25.02Z"/>
        <path class="cls-4" d="M69.76,52.46c-.15.71-.25,1.3.07,1.99-.28.46-.76.48-1.17.16.07-.36.12-.72.09-1.1s-.33-.92-.04-1.14c.37-.27.7-.11,1.05.09Z"/>
        <path class="cls-4" d="M65.94,53.98c-.15-.1-.09-.92.21-.85.37.09.15,1.08-.21.85Z"/>
      </g>
      <text class="cls-2" transform="translate(21.51 55.07) rotate(7.4)"><tspan class="cls-9" x="0" y="0">S</tspan><tspan class="cls-12" x="3.06" y="0">V</tspan><tspan x="6.22" y="0">S</tspan></text>
    </g>
  </g>
</svg>